<svg xmlns="http://www.w3.org/2000/svg" style="background:0 0" width="455.072" height="120.81" preserveAspectRatio="xMidYMid" viewBox="22.464 14.595 455.072 120.81"><defs><filter id="editing-extrusion" width="300%" height="300%" x="-100%" y="-100%"><feFlood flood-color="#444" result="color1"/><feConvolveMatrix divisor="1" in="SourceAlpha" kernelMatrix="1 0 0 0 0 0 0 0 0 1 0 0 0 0 0 0 0 0 1 0 0 0 0 0 0 0 0 1 0 0 0 0 0 0 0 0 1 0 0 0 0 0 0 0 0 1 0 0 0 0 0 0 0 0 1 0 0 0 0 0 0 0 0 1" order="8,8" result="extrude"/><feComposite in="color1" in2="extrude" operator="in" result="comp-extrude"/><feOffset dx="4" dy="4" in="comp-extrude" result="offset-extrude"/><feMerge><feMergeNode in="offset-extrude"/><feMergeNode in="SourceGraphic"/></feMerge></filter></defs><g filter="url(#editing-extrusion)"><g><path fill="#ccc" d="M30.21-33.92L30.21-33.92L30.21-33.92Q25.02-33.92 21.25-35.65L21.25-35.65L19.20-25.28L31.55-25.28L31.55-25.28Q31.55-21.89 29.86-19.74L29.86-19.74L29.86-19.74Q28.16-17.60 25.09-17.60L25.09-17.60L25.09-17.60Q21.76-17.60 18.69-18.82L18.69-18.82L18.69-18.82Q18.05-19.07 17.98-19.14L17.98-19.14L14.34 0L0.38 0L8.51-42.24L37.06-42.24L37.06-42.24Q37.06-38.34 35.23-36.13L35.23-36.13L35.23-36.13Q33.41-33.92 30.21-33.92ZM37.79-1.92L37.79-1.92L37.79-1.92Q36.29-3.58 35.62-6.21L35.62-6.21L35.62-6.21Q34.94-8.83 34.94-13.12L34.94-13.12L34.94-13.12Q34.94-17.41 36.42-21.31L36.42-21.31L36.42-21.31Q37.89-25.22 40.58-28.03L40.58-28.03L40.58-28.03Q46.08-33.92 55.17-33.92L55.17-33.92L55.17-33.92Q58.43-33.92 60.80-32.83L60.80-32.83L71.74-33.92L67.01-8.96L67.01-8.96Q66.82-8.19 66.82-6.78L66.82-6.78L66.82-6.78Q66.82-5.38 67.68-4.48L67.68-4.48L67.68-4.48Q68.54-3.58 69.82-3.46L69.82-3.46L69.82-3.46Q69.18-1.28 66.85 0L66.85 0L66.85 0Q64.51 1.28 61.89 1.28L61.89 1.28L61.89 1.28Q59.26 1.28 57.50 0.29L57.50 0.29L57.50 0.29Q55.74-0.70 55.23-2.37L55.23-2.37L55.23-2.37Q54.21-0.77 52.03 0.26L52.03 0.26L52.03 0.26Q49.86 1.28 46.94 1.28L46.94 1.28L46.94 1.28Q44.03 1.28 41.66 0.51L41.66 0.51L41.66 0.51Q39.30-0.26 37.79-1.92ZM51.30-27.90L51.30-27.90L51.30-27.90Q50.56-26.75 49.92-24.80L49.92-24.80L49.92-24.80Q49.28-22.85 48.22-17.63L48.22-17.63L48.22-17.63Q47.17-12.42 47.17-8.70L47.17-8.70L47.17-8.70Q47.17-4.99 47.74-3.90L47.74-3.90L47.74-3.90Q48.32-2.82 49.34-2.82L49.34-2.82L49.34-2.82Q51.39-2.82 52.90-4.77L52.90-4.77L52.90-4.77Q54.40-6.72 54.98-10.18L54.98-10.18L58.37-28.93L58.37-28.93Q57.02-30.08 55.46-30.08L55.46-30.08L55.46-30.08Q53.89-30.08 52.96-29.57L52.96-29.57L52.96-29.57Q52.03-29.06 51.30-27.90ZM95.23-17.98L95.23-17.98L95.23-17.98Q97.54-22.08 97.54-26.24L97.54-26.24L97.54-26.24Q97.54-28.99 95.55-28.99L95.55-28.99L95.55-28.99Q94.02-28.99 92.42-26.37L92.42-26.37L92.42-26.37Q90.75-23.74 90.24-20.35L90.24-20.35L86.91 0L73.66 1.28L80.19-32.64L90.75-33.92L89.60-27.46L89.60-27.46Q92.74-33.92 99.78-33.92L99.78-33.92L99.78-33.92Q103.49-33.92 105.50-32L105.50-32L105.50-32Q107.52-30.08 107.52-26.14L107.52-26.14L107.52-26.14Q107.52-22.21 104.93-19.71L104.93-19.71L104.93-19.71Q102.34-17.22 97.92-17.22L97.92-17.22L97.92-17.22Q96-17.22 95.23-17.98ZM154.62 1.28L154.62 1.28L154.62 1.28Q146.88 1.28 146.88-4.74L146.88-4.74L146.88-4.74Q146.88-7.36 148-12.45L148-12.45L148-12.45Q149.12-17.54 149.50-19.58L149.50-19.58L149.50-19.58Q150.40-24.26 150.40-25.73L150.40-25.73L150.40-25.73Q150.40-28.99 147.97-28.99L147.97-28.99L147.97-28.99Q146.37-28.99 144.83-26.78L144.83-26.78L144.83-26.78Q143.30-24.58 142.59-20.16L142.59-20.16L138.62 0L126.14 1.28L129.60-16.13L129.60-16.13Q130.18-19.01 130.69-22.27L130.69-22.27L130.69-22.27Q131.20-25.54 131.20-26.05L131.20-26.05L131.20-26.05Q131.20-28.99 129.02-28.99L129.02-28.99L129.02-28.99Q127.55-28.99 125.95-26.82L125.95-26.82L125.95-26.82Q124.35-24.64 123.46-20.16L123.46-20.16L119.55 0L106.94 1.28L113.66-32.64L124.10-33.92L123.01-27.46L123.01-27.46Q124.67-30.91 127.74-32.42L127.74-32.42L127.74-32.42Q130.82-33.92 135.62-33.92L135.62-33.92L135.62-33.92Q138.37-33.92 140.16-32.58L140.16-32.58L140.16-32.58Q141.95-31.23 142.53-29.06L142.53-29.06L142.53-29.06Q143.62-31.30 146.40-32.61L146.40-32.61L146.40-32.61Q149.18-33.92 152.61-33.92L152.61-33.92L152.61-33.92Q156.03-33.92 157.73-33.18L157.73-33.18L157.73-33.18Q159.42-32.45 160.45-31.23L160.45-31.23L160.45-31.23Q162.18-28.99 162.18-24.90L162.18-24.90L162.18-24.90Q162.18-20.86 160.45-12.48L160.45-12.48L160.45-12.48Q159.55-8.38 159.55-6.88L159.55-6.88L159.55-6.88Q159.55-5.38 160.42-4.48L160.42-4.48L160.42-4.48Q161.28-3.58 162.56-3.46L162.56-3.46L162.56-3.46Q161.92-1.28 159.71 0L159.71 0L159.71 0Q157.50 1.28 154.62 1.28ZM194.24-9.86L194.24-9.86L194.24-9.86Q195.46-8.32 195.46-5.34L195.46-5.34L195.46-5.34Q195.46-2.37 193.18-0.54L193.18-0.54L193.18-0.54Q190.91 1.28 186.94 1.28L186.94 1.28L186.94 1.28Q184.64 1.28 181.06 0.77L181.06 0.77L181.06 0.77Q174.02-0.32 172.00-0.32L172.00-0.32L172.00-0.32Q169.98-0.32 169.15-0.22L169.15-0.22L169.15-0.22Q168.32-0.13 166.98 0L166.98 0L174.72-42.24L188.74-42.24L182.34-7.04L182.34-7.04Q183.17-6.91 183.94-6.91L183.94-6.91L185.54-6.91L185.54-6.91Q190.91-6.91 194.24-9.86ZM202.53-1.92L202.53-1.92L202.53-1.92Q201.02-3.58 200.35-6.21L200.35-6.21L200.35-6.21Q199.68-8.83 199.68-13.12L199.68-13.12L199.68-13.12Q199.68-17.41 201.15-21.31L201.15-21.31L201.15-21.31Q202.62-25.22 205.31-28.03L205.31-28.03L205.31-28.03Q210.82-33.92 219.90-33.92L219.90-33.92L219.90-33.92Q223.17-33.92 225.54-32.83L225.54-32.83L236.48-33.92L231.74-8.96L231.74-8.96Q231.55-8.19 231.55-6.78L231.55-6.78L231.55-6.78Q231.55-5.38 232.42-4.48L232.42-4.48L232.42-4.48Q233.28-3.58 234.56-3.46L234.56-3.46L234.56-3.46Q233.92-1.28 231.58 0L231.58 0L231.58 0Q229.25 1.28 226.62 1.28L226.62 1.28L226.62 1.28Q224.00 1.28 222.24 0.29L222.24 0.29L222.24 0.29Q220.48-0.70 219.97-2.37L219.97-2.37L219.97-2.37Q218.94-0.77 216.77 0.26L216.77 0.26L216.77 0.26Q214.59 1.28 211.68 1.28L211.68 1.28L211.68 1.28Q208.77 1.28 206.40 0.51L206.40 0.51L206.40 0.51Q204.03-0.26 202.53-1.92ZM216.03-27.90L216.03-27.90L216.03-27.90Q215.30-26.75 214.66-24.80L214.66-24.80L214.66-24.80Q214.02-22.85 212.96-17.63L212.96-17.63L212.96-17.63Q211.90-12.42 211.90-8.70L211.90-8.70L211.90-8.70Q211.90-4.99 212.48-3.90L212.48-3.90L212.48-3.90Q213.06-2.82 214.08-2.82L214.08-2.82L214.08-2.82Q216.13-2.82 217.63-4.77L217.63-4.77L217.63-4.77Q219.14-6.72 219.71-10.18L219.71-10.18L223.10-28.93L223.10-28.93Q221.76-30.08 220.19-30.08L220.19-30.08L220.19-30.08Q218.62-30.08 217.70-29.57L217.70-29.57L217.70-29.57Q216.77-29.06 216.03-27.90ZM267.01 1.28L267.01 1.28L267.01 1.28Q259.26 1.28 259.26-4.74L259.26-4.74L259.26-4.74Q259.33-6.40 259.84-9.22L259.84-9.22L260.99-15.10L260.99-15.10Q262.72-23.42 262.72-25.28L262.72-25.28L262.72-25.28Q262.72-28.99 260.54-28.99L260.54-28.99L260.54-28.99Q256.90-28.99 254.98-19.46L254.98-19.46L251.20 0L238.34 1.28L244.99-32.70L255.49-33.92L254.46-27.65L254.46-27.65Q257.47-33.92 266.69-33.92L266.69-33.92L266.69-33.92Q271.17-33.92 273.06-32.03L273.06-32.03L273.06-32.03Q274.94-30.14 274.94-25.92L274.94-25.92L274.94-25.92Q274.94-21.95 272.90-12.67L272.90-12.67L272.90-12.67Q271.94-8.51 271.94-6.94L271.94-6.94L271.94-6.94Q271.94-5.38 272.80-4.48L272.80-4.48L272.80-4.48Q273.66-3.58 274.94-3.46L274.94-3.46L274.94-3.46Q274.30-1.28 272.10 0L272.10 0L272.10 0Q269.89 1.28 267.01 1.28ZM300.22-33.92L300.22-33.92L300.22-33.92Q302.53-33.92 304.32-33.41L304.32-33.41L304.32-33.41Q304.38-33.66 304.51-34.37L304.51-34.37L304.83-36.35L304.83-36.35Q305.09-37.63 305.47-39.74L305.47-39.74L306.50-44.80L319.23-46.08L312.13-8.96L312.13-8.96Q312.06-8.58 312.06-7.94L312.06-7.94L312.06-6.91L312.06-6.91Q312.06-5.50 312.77-4.45L312.77-4.45L312.77-4.45Q313.47-3.39 314.62-3.39L314.62-3.39L314.62-3.39Q313.34-0.38 309.44 0.90L309.44 0.90L309.44 0.90Q308.10 1.28 306.21 1.28L306.21 1.28L306.21 1.28Q304.32 1.28 302.59 0.29L302.59 0.29L302.59 0.29Q300.86-0.70 300.35-2.37L300.35-2.37L300.35-2.37Q299.33-0.70 297.28 0.29L297.28 0.29L297.28 0.29Q295.23 1.28 292.26 1.28L292.26 1.28L292.26 1.28Q289.28 1.28 286.82 0.51L286.82 0.51L286.82 0.51Q284.35-0.26 282.82-1.92L282.82-1.92L282.82-1.92Q280-5.18 280-12.61L280-12.61L280-12.61Q280-22.21 285.63-28.03L285.63-28.03L285.63-28.03Q291.26-33.92 300.22-33.92ZM299.78-30.08L299.78-30.08L299.78-30.08Q297.41-30.08 296.13-27.52L296.13-27.52L296.13-27.52Q294.85-24.96 293.54-18.62L293.54-18.62L293.54-18.62Q292.22-12.29 292.22-6.59L292.22-6.59L292.22-6.59Q292.22-2.69 294.53-2.69L294.53-2.69L294.53-2.69Q296.58-2.69 298.02-4.74L298.02-4.74L298.02-4.74Q299.46-6.78 300.03-10.18L300.03-10.18L303.49-28.93L303.49-28.93Q302.14-30.08 299.78-30.08Z" transform="translate(90.66374692320824, 98.68000030517578)"/></g></g><style/></svg>